<mxfile host="app.diagrams.net" agent="Mozilla/5.0 (Windows NT 10.0; Win64; x64) AppleWebKit/537.36 (KHTML, like Gecko) Chrome/134.0.0.0 Safari/537.36" version="26.0.10">
  <diagram name="Page-1" id="BHhzGRZfiOF7rZ24ksQg">
    <mxGraphModel dx="763" dy="1164" grid="1" gridSize="10" guides="1" tooltips="1" connect="1" arrows="1" fold="1" page="1" pageScale="1" pageWidth="850" pageHeight="1100" math="0" shadow="0">
      <root>
        <mxCell id="0" />
        <mxCell id="1" parent="0" />
        <mxCell id="2_ASLqUfrEEVP9vTMWPu-1" value="" style="rounded=1;whiteSpace=wrap;html=1;rotation=-90;" vertex="1" parent="1">
          <mxGeometry x="-40" y="120" width="440" height="280" as="geometry" />
        </mxCell>
        <mxCell id="2_ASLqUfrEEVP9vTMWPu-3" value="" style="rounded=1;whiteSpace=wrap;html=1;rotation=90;glass=0;shadow=1;" vertex="1" parent="1">
          <mxGeometry x="420" y="140" width="425" height="255" as="geometry" />
        </mxCell>
        <mxCell id="2_ASLqUfrEEVP9vTMWPu-5" value="" style="shape=flexArrow;endArrow=classic;html=1;rounded=0;" edge="1" parent="1">
          <mxGeometry width="50" height="50" relative="1" as="geometry">
            <mxPoint x="390" y="285" as="sourcePoint" />
            <mxPoint x="460" y="285" as="targetPoint" />
          </mxGeometry>
        </mxCell>
      </root>
    </mxGraphModel>
  </diagram>
</mxfile>
